<?xml version="1.0" standalone="no"?>
<!DOCTYPE svg PUBLIC "-//W3C//DTD SVG 20010904//EN"
 "http://www.w3.org/TR/2001/REC-SVG-20010904/DTD/svg10.dtd">
<svg version="1.0" xmlns="http://www.w3.org/2000/svg"
 width="1024.000000pt" height="1024.000000pt" viewBox="0 0 1024.000000 1024.000000"
 preserveAspectRatio="xMidYMid meet">

<g transform="translate(0.000000,1024.000000) scale(0.100000,-0.100000)"
fill="#000000" stroke="none">
<path d="M0 5120 l0 -5120 5120 0 5120 0 0 5120 0 5120 -5120 0 -5120 0 0
-5120z m4476 2514 c88 -85 180 -177 205 -206 24 -28 55 -65 69 -81 l25 -29 60
20 c160 54 327 50 531 -13 16 -5 27 2 50 32 38 50 173 191 311 326 97 94 115
107 145 107 43 0 64 -16 73 -56 6 -29 1 -37 -72 -105 -43 -41 -145 -140 -227
-222 l-149 -147 52 -55 c75 -79 96 -130 96 -235 l0 -86 70 -42 c153 -90 295
-240 375 -394 l41 -77 92 66 c51 37 104 78 120 92 l27 25 0 234 c-1 259 -2
257 67 309 21 15 47 36 58 45 174 145 221 163 277 108 27 -27 30 -36 25 -71
-6 -44 -7 -45 -149 -151 l-98 -73 0 -237 c0 -163 -4 -245 -12 -263 -11 -24
-73 -72 -271 -212 -76 -54 -71 -35 -47 -193 5 -36 10 -84 10 -107 0 -41 0 -41
78 -84 134 -73 144 -79 261 -147 74 -43 121 -78 133 -97 16 -26 18 -54 18
-225 l0 -195 147 -90 c149 -92 193 -127 193 -156 0 -66 -55 -116 -114 -105
-29 6 -249 137 -341 203 -62 45 -65 55 -65 273 l0 195 -119 68 c-66 37 -122
67 -125 67 -4 0 -5 -174 -4 -387 l3 -387 85 -58 c47 -32 123 -82 170 -110 132
-81 190 -133 190 -169 0 -13 1 -133 3 -266 l2 -242 50 -46 c28 -25 75 -65 105
-88 30 -23 61 -48 68 -54 7 -7 17 -13 21 -13 14 0 41 -59 41 -92 0 -40 -30
-73 -75 -82 -47 -10 -52 -6 -305 207 -52 42 -72 67 -79 95 -6 21 -11 142 -11
278 l0 242 -52 33 c-29 19 -86 57 -127 86 -41 29 -78 53 -82 53 -5 0 -9 -69
-9 -152 0 -169 -9 -242 -46 -368 l-24 -84 22 -21 c13 -11 43 -36 68 -55 99
-77 183 -150 195 -169 6 -9 12 -116 15 -239 l5 -223 40 -36 c22 -19 48 -47 57
-62 32 -48 17 -119 -29 -140 -50 -23 -75 -14 -143 52 -118 113 -110 88 -110
338 l0 218 -58 48 c-84 69 -134 108 -143 111 -4 2 -11 -7 -15 -20 -4 -13 -31
-59 -60 -103 -222 -337 -551 -534 -919 -552 -386 -18 -740 142 -976 442 -66
84 -99 136 -124 193 -10 23 -21 42 -25 42 -3 0 -16 -10 -30 -23 -14 -12 -58
-49 -97 -81 l-73 -58 0 -225 0 -225 -82 -84 c-78 -80 -84 -84 -125 -84 -58 0
-93 35 -93 92 0 33 8 47 60 103 l60 64 0 220 0 220 38 38 c20 21 75 67 121
103 47 36 98 77 114 91 l30 26 -33 129 c-29 112 -34 151 -39 302 l-6 174 -132
-88 -133 -87 0 -251 c0 -294 1 -291 -100 -374 -36 -30 -95 -79 -132 -111 -112
-95 -109 -93 -156 -88 -61 7 -85 37 -79 100 3 34 10 52 25 63 12 8 27 20 34
27 7 7 33 28 58 47 25 19 47 37 50 40 3 3 25 21 50 40 25 19 51 40 58 47 9 9
12 76 12 268 0 309 -4 297 135 384 39 24 125 80 192 125 l122 81 1 393 0 394
-32 -21 c-18 -12 -75 -45 -126 -74 l-92 -52 2 -200 c1 -176 0 -203 -16 -227
-13 -21 -237 -167 -359 -235 -67 -38 -137 8 -137 91 0 39 25 68 88 101 26 13
90 51 142 83 l95 59 5 206 5 206 29 30 c16 16 65 51 109 78 45 26 93 55 107
63 100 61 152 90 156 90 2 0 22 11 43 25 39 24 39 25 46 102 4 43 12 104 19
135 13 56 13 57 -13 81 -14 13 -75 57 -135 98 -60 41 -129 92 -152 115 l-44
41 0 246 0 245 -107 80 c-144 106 -147 109 -141 172 4 34 11 55 24 65 30 23
86 18 124 -10 90 -66 240 -184 260 -204 12 -12 16 -60 20 -260 3 -135 8 -251
12 -257 4 -6 35 -30 70 -54 35 -23 84 -58 109 -76 l47 -34 31 55 c17 30 31 58
31 61 0 35 262 314 296 314 7 0 14 3 14 8 0 4 29 23 65 42 54 29 64 38 59 55
-12 35 -5 136 11 186 11 32 36 71 70 108 l54 57 -125 131 c-68 72 -167 168
-219 213 -95 82 -113 108 -101 154 7 27 49 47 81 39 11 -3 92 -75 181 -159z
m3777 -1629 c-1 -5 -22 -61 -46 -124 l-45 -114 207 -125 c113 -69 249 -151
301 -182 52 -32 143 -88 202 -126 58 -38 140 -90 182 -117 l76 -48 0 -77 -1
-77 -67 -41 c-198 -121 -418 -259 -422 -264 -3 -4 -60 -40 -128 -81 -129 -78
-152 -92 -284 -176 -44 -29 -85 -50 -90 -47 -14 9 -10 262 5 274 6 6 62 40
122 76 61 36 128 78 150 93 22 16 45 30 51 32 7 2 89 51 182 109 149 91 168
106 154 118 -21 15 -382 233 -437 263 -22 12 -84 48 -137 81 l-98 60 0 64 c0
35 -4 64 -9 64 -10 0 -19 -22 -75 -185 -44 -127 -124 -343 -188 -510 -28 -71
-70 -184 -93 -250 -59 -164 -165 -446 -177 -468 -8 -16 -22 -17 -125 -15 -102
3 -116 5 -119 21 -1 9 2 17 7 17 5 0 9 5 9 11 0 5 27 79 60 162 72 185 262
691 498 1327 44 118 85 228 91 243 l11 28 117 -3 c72 -2 117 -7 116 -13z
m-5885 -352 l-3 -138 -65 -42 c-36 -24 -119 -75 -185 -115 -139 -83 -428 -259
-434 -264 -7 -6 24 -27 114 -79 44 -25 107 -63 140 -85 33 -21 89 -56 125 -76
36 -21 91 -55 122 -76 31 -21 59 -38 62 -38 2 0 32 -16 65 -36 l61 -36 0 -134
c0 -95 -3 -134 -12 -134 -11 0 -428 254 -483 294 -16 13 -57 38 -90 58 -139
81 -411 252 -418 262 -4 6 -6 45 -5 86 l3 75 95 55 c52 30 127 76 165 101 39
25 128 81 198 125 70 43 171 107 225 141 53 34 139 87 190 118 51 32 95 61 98
66 3 5 12 9 20 9 12 0 14 -22 12 -137z"/>
<path d="M4985 7209 c-156 -23 -271 -93 -295 -179 -22 -79 -22 -79 83 -51 84
23 110 25 297 25 178 1 216 -2 290 -21 47 -12 93 -25 103 -28 14 -6 17 -2 17
24 0 38 -24 99 -48 121 -95 87 -287 134 -447 109z"/>
<path d="M4835 6826 c-192 -47 -315 -113 -453 -241 -168 -156 -279 -397 -282
-612 l0 -23 331 0 332 0 103 -101 103 -102 3 89 c2 49 2 133 0 187 l-3 98 -29
-6 c-16 -3 -39 -1 -51 5 -17 9 -23 9 -29 0 -5 -9 -9 -9 -14 -1 -4 6 -3 11 3
11 6 0 8 7 4 16 -3 8 -12 13 -19 10 -7 -3 -11 0 -8 7 2 7 -30 46 -71 87 l-75
74 0 68 c0 61 2 68 20 68 17 0 20 -7 20 -52 0 -52 2 -55 71 -128 43 -45 73
-70 76 -62 3 6 10 9 16 5 7 -3 3 3 -7 15 -11 12 -19 36 -19 52 0 16 8 39 19
51 10 11 24 39 29 62 14 54 39 56 43 5 2 -26 13 -47 34 -68 25 -26 29 -36 24
-63 -8 -40 -30 -57 -74 -57 -22 0 -31 -4 -26 -11 4 -8 0 -9 -15 -4 -26 8 -27
0 -3 -25 12 -13 34 -20 70 -22 l52 -3 3 -227 c2 -221 3 -228 25 -250 l22 -22
0 365 0 365 -22 1 c-48 4 -68 14 -68 33 0 17 7 20 45 20 l45 0 -1 58 c0 43 -2
52 -9 35 -14 -33 -55 -56 -87 -48 -69 17 -84 76 -33 127 29 29 30 31 30 134 0
121 11 113 -125 80z m47 -76 c16 -30 16 -34 0 -59 -9 -14 -25 -32 -35 -39 -16
-12 -18 -30 -16 -173 0 -92 5 -157 10 -154 5 4 6 -1 3 -9 -5 -14 -8 -14 -21 0
-11 11 -19 12 -28 4 -9 -8 -15 -8 -20 0 -4 6 -1 9 5 8 8 -2 11 41 10 154 -1
154 -2 159 -25 183 -44 43 -29 108 30 124 42 11 67 0 87 -39z m-279 -81 c30
-16 37 -28 37 -70 0 -25 -7 -42 -25 -59 -22 -21 -24 -29 -22 -103 l2 -80 78
-79 c44 -43 83 -75 89 -72 7 4 8 2 4 -5 -7 -10 55 -75 157 -166 22 -19 26 -30
21 -52 -3 -15 -15 -36 -26 -45 -25 -22 -81 -23 -102 -2 -20 19 -21 73 -2 99
13 19 4 30 -125 163 l-139 142 0 93 c0 87 -2 95 -25 117 -39 37 -29 101 18
120 30 12 35 12 60 -1z m-153 -398 c35 -35 38 -68 9 -105 -24 -30 -72 -35
-107 -10 -32 22 -31 86 3 112 24 19 25 24 25 140 0 107 2 121 18 124 15 3 17
-8 20 -114 3 -115 3 -118 32 -147z m570 189 c0 -5 -4 -10 -10 -10 -5 0 -10 5
-10 10 0 6 5 10 10 10 6 0 10 -4 10 -10z m-363 -52 c-3 -8 -6 -5 -6 6 -1 11 2
17 5 13 3 -3 4 -12 1 -19z m213 -32 c0 -3 -4 -8 -10 -11 -5 -3 -10 -1 -10 4 0
6 5 11 10 11 6 0 10 -2 10 -4z m-30 -110 c0 -4 -9 -1 -19 6 -11 7 -17 16 -15
20 5 8 34 -15 34 -26z m-85 -34 c-3 -3 -11 0 -18 7 -9 10 -8 11 6 5 10 -3 15
-9 12 -12z m110 8 c3 -5 2 -10 -4 -10 -5 0 -13 5 -16 10 -3 6 -2 10 4 10 5 0
13 -4 16 -10z m92 -56 c-3 -3 -12 -4 -19 -1 -8 3 -5 6 6 6 11 1 17 -2 13 -5z
m-687 -38 c0 -3 -4 -8 -10 -11 -5 -3 -10 -1 -10 4 0 6 5 11 10 11 6 0 10 -2
10 -4z m-20 -31 c22 -24 28 -25 178 -27 l156 -3 27 28 c29 29 76 36 97 15 9
-9 12 -9 12 3 1 7 7 -4 15 -26 16 -46 6 -76 -36 -108 -25 -18 -28 -18 -57 -3
-17 9 -35 23 -40 31 -6 12 -35 17 -123 22 -143 7 -197 0 -231 -32 -28 -26 -81
-34 -93 -14 -4 6 -12 8 -19 6 -15 -6 -19 69 -4 96 15 30 27 37 64 37 20 0 39
-9 54 -25z m345 15 c-3 -5 -11 -10 -16 -10 -6 0 -7 5 -4 10 3 6 11 10 16 10 6
0 7 -4 4 -10z m345 -60 c0 -5 -2 -10 -4 -10 -3 0 -8 5 -11 10 -3 6 -1 10 4 10
6 0 11 -4 11 -10z m-795 -100 c3 -6 -4 -10 -17 -10 -18 0 -20 2 -8 10 19 12
18 12 25 0z"/>
<path d="M4801 6740 c-19 -11 -9 -45 14 -45 13 0 21 8 23 21 3 23 -17 37 -37
24z"/>
<path d="M4550 6606 c0 -21 5 -26 26 -26 21 0 25 4 22 23 -2 14 -11 23 -25 25
-19 3 -23 -1 -23 -22z m40 0 c0 -3 -4 -8 -10 -11 -5 -3 -10 -1 -10 4 0 6 5 11
10 11 6 0 10 -2 10 -4z"/>
<path d="M4853 6013 c-18 -7 -16 -42 3 -50 8 -3 23 1 31 10 13 13 14 19 3 31
-13 17 -17 18 -37 9z"/>
<path d="M4380 6214 c0 -21 4 -25 23 -22 22 3 39 48 18 48 -6 0 -11 -9 -11
-20 0 -11 -5 -20 -11 -20 -6 0 -8 9 -4 20 4 11 2 20 -4 20 -6 0 -11 -12 -11
-26z"/>
<path d="M4170 6065 c0 -20 5 -25 25 -25 20 0 25 5 25 25 0 20 -5 25 -25 25
-20 0 -25 -5 -25 -25z m30 -5 c0 -5 -2 -10 -4 -10 -3 0 -8 5 -11 10 -3 6 -1
10 4 10 6 0 11 -4 11 -10z"/>
<path d="M4640 6065 c0 -20 5 -25 25 -25 20 0 25 5 25 25 0 20 -5 25 -25 25
-20 0 -25 -5 -25 -25z m27 -7 c-3 -8 -6 -5 -6 6 -1 11 2 17 5 13 3 -3 4 -12 1
-19z"/>
<path d="M5000 6741 c0 -104 1 -109 24 -125 14 -8 27 -26 29 -38 2 -13 5 43 6
125 l1 147 -30 0 -30 0 0 -109z"/>
<path d="M5100 6654 c0 -191 1 -196 20 -191 11 3 22 1 25 -3 3 -5 -7 -11 -22
-13 -20 -3 -15 -4 15 -6 28 -1 45 -6 49 -17 9 -25 -11 -36 -79 -43 -10 -1 -10
-711 0 -711 4 0 15 9 25 21 16 18 18 44 17 242 l-2 222 60 5 c52 4 62 9 88 40
16 19 28 38 26 43 -1 5 1 6 6 3 5 -3 32 19 61 48 49 52 51 57 51 110 0 49 2
56 20 56 18 0 20 -7 20 -67 l0 -68 -98 -102 c-91 -95 -101 -103 -138 -104 -21
-1 -42 -1 -46 0 -5 0 -8 -83 -8 -185 l0 -187 102 102 102 101 333 0 c259 0
333 3 334 13 9 83 -39 275 -93 375 -38 69 -96 155 -135 199 -38 44 -184 163
-199 163 -7 0 -14 4 -16 9 -6 18 -159 82 -250 105 -133 34 -172 40 -163 25 4
-6 7 -54 6 -106 -2 -87 0 -96 23 -124 15 -18 26 -43 26 -60 0 -28 -30 -69 -50
-69 -5 0 -7 -7 -4 -15 4 -8 1 -15 -6 -15 -6 0 -8 5 -5 10 8 13 -38 30 -64 23
-13 -3 -21 -1 -21 6 0 7 4 10 8 7 5 -3 7 17 4 45 -4 46 -2 54 22 76 26 24 27
28 25 129 l-1 104 -34 0 -34 0 0 -196z m207 160 c-3 -3 -12 -4 -19 -1 -8 3 -5
6 6 6 11 1 17 -2 13 -5z m67 -24 c14 -5 32 -20 41 -34 14 -21 15 -31 5 -61 -6
-19 -20 -40 -31 -45 -17 -10 -19 -23 -19 -160 0 -147 0 -149 -27 -177 -14 -15
-22 -20 -17 -11 5 9 8 91 6 182 -2 135 -6 166 -17 166 -20 0 -35 32 -35 72 0
39 16 64 45 71 11 3 21 5 22 6 1 0 13 -3 27 -9z m264 -127 c12 -10 24 -30 28
-45 5 -22 0 -34 -25 -59 -30 -30 -31 -32 -31 -127 l0 -97 -125 -125 c-136
-136 -151 -155 -137 -173 52 -66 -19 -149 -93 -108 -24 13 -31 25 -33 54 -3
31 2 42 24 60 79 65 132 120 128 132 -6 14 33 65 48 65 5 0 -2 -12 -16 -27
-14 -15 -23 -29 -20 -32 2 -3 45 35 95 85 l90 89 -2 93 c-1 55 -6 92 -12 92
-18 0 -36 34 -37 68 0 62 71 95 118 55z m47 -13 c3 -5 1 -10 -4 -10 -6 0 -11
5 -11 10 0 6 2 10 4 10 3 0 8 -4 11 -10z m35 -30 c0 -5 -2 -10 -4 -10 -3 0 -8
5 -11 10 -3 6 -1 10 4 10 6 0 11 -4 11 -10z m-10 -90 c0 -5 -2 -10 -4 -10 -3
0 -8 5 -11 10 -3 6 -1 10 4 10 6 0 11 -4 11 -10z m72 -115 c3 -100 6 -116 25
-137 20 -21 28 -51 25 -88 -3 -24 -59 -53 -89 -45 -38 9 -53 29 -53 69 0 26 7
42 25 58 24 21 25 27 25 129 0 116 5 140 25 133 10 -4 14 -36 17 -119z m-532
-10 c0 -26 7 -42 25 -58 37 -33 41 -69 12 -102 -20 -24 -33 -29 -78 -31 -34
-1 -47 1 -34 6 18 7 19 8 3 15 -13 5 -18 19 -18 50 0 35 5 48 26 64 14 11 23
25 20 30 -12 19 5 61 25 61 15 0 19 -7 19 -35z m60 -50 c0 -8 -2 -15 -4 -15
-2 0 -6 7 -10 15 -3 8 -1 15 4 15 6 0 10 -7 10 -15z m-17 -135 c-10 -11 -19
-20 -21 -20 -1 0 2 9 8 20 6 11 15 20 20 20 6 0 2 -9 -7 -20z m52 -70 c-10
-11 -21 -17 -24 -14 -3 3 3 12 13 20 28 20 32 17 11 -6z m212 -40 c13 -19 24
-20 173 -20 156 0 160 0 184 25 31 31 78 33 107 4 20 -20 21 -35 7 -115 -5
-29 -118 -3 -131 31 -9 23 -308 22 -328 -1 -9 -11 -10 -17 -1 -23 6 -4 -15 -8
-47 -9 -43 -2 -63 2 -75 13 -22 23 -30 63 -16 80 6 8 8 20 4 26 -4 7 -3 9 2 6
6 -3 16 -1 24 4 23 15 81 2 97 -21z m-147 -20 c0 -5 -5 -10 -11 -10 -5 0 -7 5
-4 10 3 6 8 10 11 10 2 0 4 -4 4 -10z m110 -120 c0 -5 -5 -10 -11 -10 -5 0 -7
5 -4 10 3 6 8 10 11 10 2 0 4 -4 4 -10z m-392 -155 c0 -16 -2 -15 -8 5 -4 14
-8 34 -8 45 0 16 2 15 8 -5 4 -14 8 -34 8 -45z m90 -9 c-7 -8 -15 -12 -17 -11
-5 6 10 25 20 25 5 0 4 -6 -3 -14z"/>
<path d="M5338 6743 c-23 -6 -23 -39 -1 -47 9 -4 23 0 32 9 13 13 13 17 1 28
-8 8 -23 12 -32 10z m12 -23 c0 -5 -5 -10 -11 -10 -5 0 -7 5 -4 10 3 6 8 10
11 10 2 0 4 -4 4 -10z"/>
<path d="M5570 6625 c-16 -20 -6 -45 19 -45 25 0 34 14 26 40 -8 24 -28 26
-45 5z"/>
<path d="M5274 6006 c-9 -24 4 -48 23 -44 12 2 18 12 18 28 0 29 -32 41 -41
16z"/>
<path d="M5740 6230 c-13 -25 -5 -40 21 -40 25 0 35 25 19 45 -17 20 -27 19
-40 -5z m26 -27 c-11 -11 -19 6 -11 24 8 17 8 17 12 0 3 -10 2 -21 -1 -24z"/>
<path d="M5204 6305 c-14 -34 13 -56 45 -36 10 7 11 13 2 30 -14 24 -39 28
-47 6z"/>
<path d="M5480 6085 c-16 -19 -6 -45 19 -45 23 0 35 28 20 46 -15 18 -24 18
-39 -1z"/>
<path d="M5944 6075 c-4 -9 -2 -21 4 -27 16 -16 47 -5 47 17 0 26 -42 34 -51
10z"/>
<path d="M4963 6583 c-7 -3 -13 -16 -13 -29 0 -19 5 -24 25 -24 20 0 25 5 25
24 0 25 -15 36 -37 29z"/>
<path d="M5164 6565 c-8 -20 4 -35 27 -35 14 0 19 7 19 25 0 18 -5 25 -20 25
-11 0 -23 -7 -26 -15z"/>
<path d="M4906 6304 c-9 -22 17 -49 39 -40 10 3 15 15 13 28 -4 29 -42 37 -52
12z m44 -14 c0 -5 -7 -10 -16 -10 -8 0 -12 5 -9 10 3 6 10 10 16 10 5 0 9 -4
9 -10z"/>
<path d="M5953 5783 l-73 -4 0 -180 0 -180 26 -24 c75 -69 -15 -178 -95 -116
-36 28 -35 86 2 113 l27 20 0 184 0 184 -104 0 c-85 0 -105 -3 -110 -16 -3 -9
-6 -91 -6 -183 0 -168 0 -168 25 -187 19 -14 25 -28 25 -56 0 -20 5 -40 10
-43 6 -3 10 -12 10 -18 0 -8 -3 -7 -9 2 -5 7 -14 10 -21 6 -9 -6 -9 -10 1 -17
10 -6 7 -7 -8 -3 -30 8 -29 1 4 -35 l26 -30 144 0 c81 0 143 4 143 9 0 18 32
41 56 41 14 0 38 -7 54 -15 25 -13 30 -22 30 -54 0 -44 -21 -68 -66 -77 -25
-5 -36 0 -62 26 l-31 31 -142 -2 c-139 -1 -141 -1 -168 25 -15 15 -31 23 -36
19 -4 -5 -5 -3 -2 3 4 6 -11 30 -33 52 -50 50 -55 99 -15 136 25 23 25 24 25
205 l0 181 -64 0 -65 0 -145 -147 -146 -148 0 -62 0 -62 57 -3 c45 -2 57 -7
59 -21 3 -20 -23 -28 -76 -25 -29 3 -36 -1 -38 -19 -3 -20 2 -22 50 -25 40 -2
54 -7 56 -20 3 -14 -6 -17 -50 -20 -46 -3 -53 -6 -56 -25 -3 -22 0 -23 72 -23
l76 0 0 130 c0 124 -1 130 -25 154 -31 31 -34 85 -7 109 30 27 87 22 111 -9
12 -15 21 -36 21 -48 0 -27 -27 -66 -45 -66 -12 0 -15 -29 -17 -157 l-3 -157
-93 3 -93 3 3 -34 3 -33 128 -3 127 -3 0 38 c0 46 13 68 34 60 12 -5 16 -21
16 -72 l0 -65 -140 -1 c-174 -2 -164 -1 -168 -21 -4 -20 20 -21 341 -18 l157
1 42 -45 c22 -25 47 -46 55 -46 8 0 12 -4 9 -9 -8 -12 20 -34 33 -27 5 4 13 1
17 -5 5 -8 3 -9 -6 -4 -8 5 -11 3 -8 -6 7 -22 49 -39 100 -39 41 0 52 5 75 30
49 56 133 32 133 -38 0 -46 -8 -58 -43 -71 -41 -16 -52 -14 -85 14 -26 21 -40
25 -100 25 l-70 0 -84 85 -83 84 -204 6 c-233 7 -281 3 -281 -26 0 -18 10 -19
243 -19 l243 0 40 -40 c21 -22 45 -38 53 -35 8 3 11 0 8 -9 -4 -9 26 -46 80
-100 68 -67 93 -86 115 -86 15 0 28 4 28 9 0 20 33 41 64 41 61 0 94 -64 64
-121 -20 -38 -81 -39 -116 -2 -17 18 -39 29 -62 31 -29 3 -51 19 -129 98 -74
74 -99 93 -115 89 -18 -5 -19 -4 -5 7 15 10 13 15 -18 44 l-35 33 -176 -1
c-97 0 -184 -2 -192 -4 -13 -3 -15 -33 -13 -201 1 -109 2 -207 2 -217 1 -20
309 -338 321 -331 3 2 2 -29 -2 -68 -11 -100 -2 -162 28 -186 61 -48 -7 -149
-83 -124 -56 19 -66 89 -17 129 24 20 25 24 22 125 -2 80 -6 103 -16 101 -8
-1 -11 2 -7 7 3 6 -61 78 -142 161 -105 108 -149 147 -153 136 -3 -8 -4 92 -3
224 2 203 1 240 -11 240 -12 0 -15 -41 -16 -253 l-1 -253 80 -77 c72 -69 101
-92 88 -69 -3 4 -1 16 4 27 7 15 8 12 5 -15 -2 -20 2 -40 10 -48 8 -7 14 -22
14 -32 0 -13 11 -21 38 -27 l37 -9 3 -233 2 -233 25 -20 c32 -25 34 -80 5
-105 -11 -10 -21 -27 -21 -38 -1 -17 -2 -17 -6 -2 -3 11 -14 17 -32 17 -30 0
-55 22 -66 58 -7 23 27 92 46 92 10 0 12 180 2 323 -4 65 -10 97 -18 97 -9 0
-14 -39 -19 -131 -7 -127 -8 -131 -37 -158 -28 -27 -29 -31 -29 -123 0 -88 2
-96 25 -116 36 -32 37 -86 2 -115 -24 -19 -78 -17 -103 4 -21 17 -17 82 6 112
17 21 20 40 20 122 l0 97 35 34 35 34 0 163 0 163 -70 67 c-38 37 -72 67 -75
67 -13 0 6 -72 25 -92 11 -12 20 -18 21 -12 0 5 4 0 9 -11 5 -11 9 -51 9 -89
1 -60 4 -70 26 -88 55 -43 11 -134 -61 -126 l-34 4 0 -253 0 -254 38 7 c178
31 349 104 477 202 78 61 87 70 80 82 -3 5 0 7 8 4 13 -5 90 75 148 155 58 80
148 267 176 366 41 149 43 184 43 913 l0 702 -24 0 c-13 0 -36 2 -52 3 -16 2
-62 2 -101 0z m-283 -19 c0 -3 -7 -12 -15 -20 -13 -14 -15 -13 -15 5 0 12 6
21 15 21 8 0 15 -3 15 -6z m270 -8 c0 -8 -4 -18 -10 -21 -5 -3 -10 3 -10 14 0
12 5 21 10 21 6 0 10 -6 10 -14z m-415 -31 c14 -13 25 -35 25 -47 0 -29 -26
-68 -46 -68 -12 0 -14 -29 -14 -176 l0 -176 162 -164 162 -165 37 41 c28 31
44 40 69 40 20 0 44 10 62 25 36 30 77 32 106 5 19 -18 22 -30 20 -83 -1 -34
-4 -54 -6 -44 -3 13 -9 16 -20 11 -46 -19 -69 -16 -100 15 -29 30 -82 45 -66
19 5 -7 3 -8 -5 -4 -8 5 -28 -8 -52 -33 -22 -23 -45 -41 -51 -41 -5 0 -42 34
-82 75 -40 41 -78 75 -85 75 -7 0 -9 -4 -6 -10 3 -5 1 -10 -4 -10 -14 0 -14
13 -2 26 6 5 -25 44 -85 104 l-94 95 0 186 c0 178 -1 187 -20 192 -13 3 -22
17 -26 36 -4 17 -11 31 -15 31 -5 0 5 16 22 35 39 43 78 46 114 10z m274 -12
c18 -20 28 -39 24 -42 -4 -3 -13 -15 -19 -26 -6 -11 -20 -24 -32 -30 -21 -9
-22 -17 -24 -180 -3 -152 -5 -170 -20 -173 -17 -3 -18 10 -18 168 0 172 0 172
-25 192 -18 14 -25 29 -25 55 0 48 24 73 70 73 29 0 43 -7 69 -37z m291 17
c20 -20 27 -74 12 -96 -4 -6 -18 -17 -31 -23 -22 -12 -23 -16 -16 -89 4 -43
11 -79 16 -80 37 -14 52 -79 26 -114 -30 -39 -119 -29 -133 14 -10 33 5 86 26
93 18 6 20 16 20 90 0 65 -3 84 -15 89 -20 7 -38 55 -31 82 14 54 86 74 126
34z m-685 -119 c3 -5 1 -12 -5 -16 -5 -3 -10 1 -10 9 0 18 6 21 15 7z m692
-158 c-3 -10 -5 -2 -5 17 0 19 2 27 5 18 2 -10 2 -26 0 -35z m-560 -45 c-3 -7
-5 -2 -5 12 0 14 2 19 5 13 2 -7 2 -19 0 -25z m-237 -108 c0 -11 -7 -20 -15
-20 -13 0 -14 4 -5 20 6 11 13 20 15 20 3 0 5 -9 5 -20z m617 -56 c-3 -3 -12
-4 -19 -1 -8 3 -5 6 6 6 11 1 17 -2 13 -5z m-50 -230 c-3 -3 -12 -4 -19 -1 -8
3 -5 6 6 6 11 1 17 -2 13 -5z m-555 -189 c4 -5 8 -85 8 -176 l0 -165 85 -83
c53 -50 90 -79 98 -75 7 4 9 4 5 -1 -4 -4 -3 -16 3 -27 7 -13 17 -17 32 -13
17 5 19 4 7 -4 -13 -9 -12 -14 8 -33 19 -20 24 -21 33 -8 9 13 10 13 8 0 -3
-33 1 -43 14 -32 7 5 21 6 32 1 17 -6 17 -8 3 -8 -23 -1 -22 -10 2 -41 18 -23
20 -42 20 -230 l0 -204 25 -22 c39 -33 43 -75 11 -108 -45 -44 -107 -26 -130
38 -7 20 16 65 41 79 11 7 13 49 13 208 -1 175 -8 230 -23 187 -2 -7 -3 -5 -1
5 3 24 -5 47 -18 47 -6 0 -7 -7 -4 -16 3 -9 2 -12 -5 -9 -6 4 -8 13 -6 20 6
14 -245 269 -256 260 -4 -3 -5 -2 -2 1 2 4 -7 20 -21 37 -24 29 -25 31 -24
207 2 159 3 177 18 176 9 0 20 -5 24 -11z m194 -38 c20 -23 29 -26 157 -44 72
-10 98 -84 47 -138 -12 -13 -20 -35 -20 -56 0 -36 -19 -72 -55 -101 -20 -17
-19 -18 35 -72 30 -30 67 -58 81 -61 36 -8 157 -144 165 -185 4 -17 18 -40 32
-51 36 -28 36 -83 2 -110 -46 -35 -101 -20 -119 32 -9 25 -8 37 6 60 10 16 21
29 25 29 4 0 8 12 8 28 0 35 -102 142 -135 142 -16 0 -47 26 -98 81 -41 44
-77 77 -80 72 -3 -5 51 -67 120 -137 l126 -127 -2 -133 c-2 -132 -2 -134 23
-159 30 -30 34 -71 10 -105 -34 -49 -134 -10 -134 52 0 23 34 66 52 66 4 0 8
58 8 128 0 128 0 129 -29 161 -18 21 -34 30 -42 25 -7 -4 -10 -3 -6 3 4 6 -57
73 -134 149 -77 77 -149 148 -160 158 -61 62 36 151 109 100 29 -20 30 -81 2
-112 -23 -24 -9 -41 18 -21 14 11 15 11 5 -1 -17 -18 -17 -38 -1 -22 15 15 28
15 28 1 0 -5 -4 -7 -10 -4 -5 3 -10 -2 -10 -12 0 -12 18 1 60 42 53 52 60 63
56 92 -2 19 -13 41 -27 52 -19 15 -24 28 -23 65 1 44 0 46 -28 46 -18 0 -36
-9 -50 -25 -47 -55 -149 -13 -133 55 16 63 81 83 121 37z m524 -81 c0 -11 -19
-15 -25 -6 -3 5 1 10 9 10 9 0 16 -2 16 -4z m-657 -81 c-7 -21 -12 -19 -10 4
0 11 5 18 9 15 4 -3 5 -11 1 -19z m47 11 c0 -11 -19 -15 -25 -6 -3 5 1 10 9
10 9 0 16 -2 16 -4z m627 -122 c-3 -3 -12 -4 -19 -1 -8 3 -5 6 6 6 11 1 17 -2
13 -5z m60 -26 c-3 -7 -5 -2 -5 12 0 14 2 19 5 13 2 -7 2 -19 0 -25z m-305 -6
c15 -9 28 -22 28 -29 0 -9 18 -13 61 -13 51 0 66 4 91 25 57 48 128 23 128
-45 0 -29 -6 -43 -22 -54 -35 -25 -84 -20 -110 9 -18 21 -30 25 -79 25 -49 0
-62 -4 -83 -25 -29 -29 -71 -33 -104 -9 -16 11 -22 25 -22 54 0 67 54 97 112
62z m-402 -42 c0 -5 -2 -10 -4 -10 -3 0 -8 5 -11 10 -3 6 -1 10 4 10 6 0 11
-4 11 -10z m270 6 c0 -3 -4 -8 -10 -11 -5 -3 -10 -1 -10 4 0 6 5 11 10 11 6 0
10 -2 10 -4z m-340 -87 c0 -6 -4 -7 -10 -4 -5 3 -10 11 -10 16 0 6 5 7 10 4 6
-3 10 -11 10 -16z m160 1 c0 -5 -2 -10 -4 -10 -3 0 -8 5 -11 10 -3 6 -1 10 4
10 6 0 11 -4 11 -10z m-270 -35 c10 -12 10 -15 -2 -15 -8 0 -15 7 -15 15 0 8
1 15 2 15 2 0 8 -7 15 -15z m44 -14 c-2 -3 -12 3 -22 13 -16 17 -16 18 5 5 12
-7 20 -15 17 -18z m146 -32 c0 -6 -4 -7 -10 -4 -5 3 -10 11 -10 16 0 6 5 7 10
4 6 -3 10 -11 10 -16z m-120 -24 c11 -13 10 -14 -4 -9 -9 3 -16 10 -16 15 0
13 6 11 20 -6z m767 -27 c17 -14 16 -78 -1 -100 -51 -68 -168 17 -121 89 28
42 79 47 122 11z m-637 -79 c0 -5 -4 -9 -10 -9 -5 0 -10 7 -10 16 0 8 5 12 10
9 6 -3 10 -10 10 -16z m440 -29 c0 -22 -8 -25 -30 -9 -12 9 -12 10 4 5 13 -5
17 -2 12 9 -3 8 -1 15 4 15 6 0 10 -9 10 -20z m-405 -11 c4 -11 4 -23 1 -26
-3 -4 -6 1 -6 10 0 10 -7 17 -16 17 -8 0 -12 5 -9 10 10 16 23 12 30 -11z m32
-61 c-3 -8 -6 -5 -6 6 -1 11 2 17 5 13 3 -3 4 -12 1 -19z m0 -60 c-3 -8 -6 -5
-6 6 -1 11 2 17 5 13 3 -3 4 -12 1 -19z m-110 -50 c-2 -13 -4 -3 -4 22 0 25 2
35 4 23 2 -13 2 -33 0 -45z m-80 20 c-3 -8 -6 -5 -6 6 -1 11 2 17 5 13 3 -3 4
-12 1 -19z m688 3 c-3 -6 -11 -11 -17 -11 -6 0 -6 6 2 15 14 17 26 13 15 -4z
m-280 -70 c-3 -6 -11 -11 -17 -11 -6 0 -6 6 2 15 14 17 26 13 15 -4z m-191
-190 c4 -5 -3 -7 -14 -4 -23 6 -26 13 -6 13 8 0 17 -4 20 -9z m296 5 c0 -3 -4
-8 -10 -11 -5 -3 -10 -1 -10 4 0 6 5 11 10 11 6 0 10 -2 10 -4z"/>
<path d="M5444 5686 c-9 -22 4 -36 32 -36 21 0 25 4 22 23 -4 26 -45 37 -54
13z m31 -24 c-3 -3 -11 0 -18 7 -9 10 -8 11 6 5 10 -3 15 -9 12 -12z"/>
<path d="M6016 5004 c-9 -8 -16 -17 -16 -19 0 -2 7 -11 16 -19 18 -18 54 -6
54 19 0 25 -36 37 -54 19z"/>
<path d="M5708 5694 c-14 -13 6 -44 27 -44 24 0 35 16 28 38 -5 12 -45 17 -55
6z"/>
<path d="M6015 5694 c-19 -19 -4 -44 27 -44 24 0 34 26 18 45 -16 19 -25 19
-45 -1z"/>
<path d="M6004 5385 c-8 -21 4 -35 31 -35 28 0 38 12 29 34 -8 20 -53 21 -60
1z"/>
<path d="M5637 3669 c-22 -13 -22 -36 1 -48 32 -17 57 24 29 47 -8 7 -18 7
-30 1z m28 -29 c3 -5 -1 -10 -9 -10 -9 0 -16 5 -16 10 0 6 4 10 9 10 6 0 13
-4 16 -10z"/>
<path d="M5434 4755 c-9 -23 3 -45 25 -45 23 0 35 28 20 46 -15 18 -38 18 -45
-1z"/>
<path d="M5642 4663 c2 -20 8 -28 23 -28 31 0 28 49 -3 53 -20 3 -23 0 -20
-25z"/>
<path d="M5425 4560 c-9 -15 4 -50 20 -50 19 0 27 17 20 40 -7 21 -30 27 -40
10z"/>
<path d="M5877 4043 c-13 -12 -7 -41 10 -47 21 -8 48 17 40 38 -6 16 -38 22
-50 9z m43 -29 c0 -2 -7 -4 -15 -4 -8 0 -15 4 -15 10 0 5 7 7 15 4 8 -4 15 -8
15 -10z"/>
<path d="M5754 3815 c-8 -21 2 -45 19 -45 8 0 20 7 27 15 10 12 10 18 0 30 -7
8 -19 15 -27 15 -7 0 -16 -7 -19 -15z"/>
<path d="M5733 4434 c-3 -8 2 -23 11 -32 15 -15 17 -15 33 0 13 14 14 20 3 32
-16 20 -39 20 -47 0z"/>
<path d="M6014 4435 c-15 -38 21 -60 47 -29 11 14 10 18 -6 30 -24 18 -34 18
-41 -1z"/>
<path d="M5983 4203 c-16 -6 -17 -35 -1 -51 14 -14 48 2 48 23 0 17 -30 34
-47 28z"/>
<path d="M4036 5763 c-2 -10 -3 -328 -1 -708 3 -818 3 -821 106 -1057 74 -172
182 -316 326 -435 116 -96 345 -191 493 -205 l35 -3 3 248 2 247 -39 0 c-31 0
-44 6 -61 27 -26 33 -21 79 10 105 16 13 20 28 20 85 0 61 3 72 25 93 18 17
22 26 13 31 -7 5 -20 1 -30 -8 -28 -25 -31 -9 -3 17 14 13 25 19 25 14 0 -5 9
-10 20 -11 17 -2 20 4 20 40 l0 41 -75 -74 -75 -74 0 -160 0 -160 30 -31 c30
-31 31 -34 32 -138 1 -98 3 -109 25 -129 33 -30 31 -80 -3 -107 -34 -27 -64
-27 -98 0 -36 29 -35 72 4 111 29 28 30 33 30 120 0 88 -1 92 -30 119 -33 32
-38 58 -39 212 -1 83 -2 87 -20 77 -18 -9 -20 -23 -21 -211 l0 -200 31 -31
c25 -26 30 -37 25 -62 -12 -61 -80 -86 -124 -46 -31 29 -29 81 3 111 l25 24 0
217 0 217 26 20 c15 12 33 21 42 21 10 0 13 7 10 25 -3 13 -2 22 2 20 4 -3 51
41 104 96 l96 100 0 249 c0 206 -2 250 -14 250 -11 0 -14 -41 -15 -222 l-2
-223 -83 -85 c-51 -52 -82 -91 -79 -100 3 -11 2 -12 -4 -3 -6 9 -27 -6 -72
-53 -35 -36 -60 -68 -57 -72 4 -3 11 0 16 8 5 8 12 11 17 7 11 -11 -19 -28
-39 -21 -14 4 -17 -6 -23 -58 -11 -102 -3 -142 33 -176 18 -17 32 -38 32 -47
0 -20 -19 -57 -34 -67 -20 -14 -84 -8 -100 8 -23 23 -21 90 4 111 18 16 20 30
20 127 l0 110 166 167 165 168 -3 204 c-2 113 -7 209 -11 214 -5 4 -90 8 -190
9 l-182 1 -136 -134 c-107 -105 -142 -134 -167 -138 -18 -2 -46 -15 -63 -29
-39 -33 -71 -33 -105 0 -21 22 -25 33 -20 57 3 17 14 39 23 49 22 25 75 23 99
-3 21 -24 55 -39 68 -32 4 3 2 10 -5 15 -11 7 -9 8 4 4 23 -7 82 48 71 65 -4
7 -3 9 4 5 12 -7 62 38 62 56 0 6 2 9 5 6 11 -10 77 60 69 73 -5 9 -2 11 8 6
10 -3 25 4 39 19 l22 24 239 0 238 0 0 27 0 26 -242 -7 c-227 -7 -244 -9 -265
-28 -12 -12 -20 -25 -16 -31 3 -6 2 -7 -4 -4 -6 4 -36 -20 -67 -53 l-58 -60
-70 0 c-59 0 -74 -3 -88 -20 -47 -54 -134 -26 -134 43 0 77 75 104 129 47 25
-26 36 -30 83 -30 l53 0 91 90 91 90 248 0 c244 0 249 0 249 20 0 20 -5 21
-142 20 -79 -1 -147 -1 -153 -1 -6 1 -9 29 -7 72 3 59 6 70 20 67 13 -2 18
-16 20 -51 l3 -48 127 3 127 3 3 34 3 34 -95 -6 -96 -5 0 159 c0 128 -3 159
-14 159 -39 0 -54 84 -21 120 24 26 85 27 109 1 27 -30 24 -80 -7 -107 -27
-23 -27 -25 -27 -152 l0 -129 31 -7 c77 -15 119 -5 119 30 0 21 -5 23 -52 26
-39 2 -53 7 -53 18 0 16 5 17 68 19 30 1 37 5 37 21 0 17 -7 20 -45 20 -29 0
-45 -4 -45 -12 -1 -7 -7 1 -14 17 -7 17 -12 32 -10 34 5 5 36 9 82 10 l32 1 0
61 0 61 -137 139 c-76 77 -139 144 -141 150 -2 5 -35 9 -73 9 l-69 0 0 -184 0
-184 25 -16 c36 -24 35 -83 -2 -128 -15 -18 -34 -37 -41 -41 -8 -5 -10 -17 -7
-30 5 -17 4 -19 -4 -7 -8 12 -15 10 -39 -14 l-30 -28 -135 7 c-114 6 -136 5
-143 -7 -5 -9 -24 -23 -41 -32 -29 -15 -36 -15 -68 -2 -35 15 -41 28 -35 81 6
59 78 74 123 27 l27 -29 136 5 136 4 28 31 c31 35 31 39 -2 41 -20 1 -22 6
-21 44 1 43 25 92 44 92 6 0 9 66 9 185 l-2 185 -111 -1 c-62 -1 -101 -4 -87
-6 14 -3 29 -9 35 -14 6 -6 -3 -7 -23 -3 l-32 7 0 -174 0 -173 27 -22 c56 -44
23 -133 -49 -134 -33 0 -68 35 -68 67 0 29 27 83 40 83 6 0 10 72 10 185 l0
185 -119 0 c-105 0 -120 -2 -125 -17z m484 -15 c0 -10 -4 -18 -9 -18 -5 0 -11
8 -13 18 -3 11 0 19 8 19 8 0 14 -9 14 -19z m100 18 c0 -2 -7 -7 -16 -10 -8
-3 -12 -2 -9 4 6 10 25 14 25 6z m-440 -36 c33 -33 21 -120 -15 -120 -12 0
-15 -17 -15 -84 0 -73 2 -84 19 -89 10 -2 24 -20 30 -40 10 -30 10 -40 -5 -62
-20 -30 -57 -41 -93 -29 -52 19 -62 105 -15 126 22 10 24 17 24 88 0 69 -2 78
-25 98 -30 26 -34 85 -8 114 22 24 77 24 103 -2z m311 -10 c16 -21 17 -31 8
-64 -6 -23 -18 -40 -30 -43 -17 -5 -19 -18 -21 -176 -3 -154 -5 -172 -20 -175
-17 -3 -18 10 -18 164 l0 168 -27 22 c-33 26 -37 82 -8 114 27 30 91 24 116
-10z m249 10 c32 -32 35 -64 8 -104 -14 -20 -28 -33 -31 -29 -4 3 -7 -77 -7
-178 l0 -184 -95 -95 c-74 -74 -94 -99 -89 -115 4 -15 3 -17 -5 -6 -8 12 -25
0 -86 -60 -42 -41 -81 -76 -87 -78 -5 -2 -29 15 -51 36 -57 55 -69 57 -113 22
-45 -35 -77 -37 -109 -4 -30 30 -32 64 -4 99 30 38 82 36 116 -4 19 -23 33
-30 59 -30 27 0 42 -8 67 -35 l33 -36 162 165 162 165 0 168 c0 167 0 167 -25
188 -35 28 -38 90 -6 117 30 24 76 23 101 -2z m-403 -82 c-3 -8 -6 -5 -6 6 -1
11 2 17 5 13 3 -3 4 -12 1 -19z m-117 -362 c0 -3 -4 -8 -10 -11 -5 -3 -10 -1
-10 4 0 6 5 11 10 11 6 0 10 -2 10 -4z m-120 -390 c0 -2 -7 -7 -16 -10 -8 -3
-12 -2 -9 4 6 10 25 14 25 6z m260 -30 c0 -2 -8 -10 -17 -17 -16 -13 -17 -12
-4 4 13 16 21 21 21 13z m89 -28 c-2 -2 -17 -14 -34 -28 -22 -19 -26 -20 -15
-5 18 25 44 45 49 39 2 -2 2 -5 0 -6z m331 -103 c0 -61 -89 -89 -133 -41 -17
18 -29 22 -54 19 -28 -4 -31 -8 -24 -27 9 -23 -21 -96 -39 -96 -6 0 -10 -17
-10 -37 0 -31 7 -45 40 -76 22 -20 40 -41 40 -45 0 -16 -161 -172 -172 -166
-5 4 -39 -22 -74 -57 -47 -46 -64 -71 -64 -90 0 -15 7 -29 15 -33 24 -9 36
-51 24 -86 -13 -35 -35 -50 -78 -50 -33 0 -71 39 -71 72 0 25 29 68 45 68 8 0
16 18 20 43 6 35 19 53 79 109 39 37 78 67 86 68 22 0 83 67 74 81 -4 7 -3 9
3 6 6 -4 21 2 33 13 l24 20 -32 33 c-26 26 -32 41 -32 75 0 31 -6 47 -25 66
-29 29 -31 55 -9 103 15 29 21 34 48 32 17 -2 36 0 41 3 6 3 31 9 58 12 30 5
47 12 47 21 0 17 14 26 54 35 26 6 35 3 59 -21 15 -16 27 -40 27 -54z m110
-87 l0 -171 -180 -180 -180 -180 0 -202 0 -202 24 -13 c22 -11 36 -36 36 -67
0 -23 -50 -63 -80 -63 -37 0 -70 31 -70 65 0 31 26 85 41 85 6 0 9 71 9 198 0
108 -1 202 0 209 0 7 20 33 44 58 28 30 42 53 39 65 -3 10 1 21 7 25 9 5 10 1
5 -14 -3 -11 -3 -21 0 -21 4 0 65 58 136 130 l130 129 -1 153 c-1 84 -1 156 0
161 0 4 9 7 20 7 19 0 20 -7 20 -172z m-390 128 c0 -2 -7 -7 -16 -10 -8 -3
-12 -2 -9 4 6 10 25 14 25 6z m-230 -81 c11 -13 10 -14 -4 -9 -9 3 -16 10 -16
15 0 13 6 11 20 -6z m506 -106 c8 -6 14 -28 14 -49 0 -31 -6 -42 -41 -71 -23
-19 -82 -74 -131 -123 -69 -67 -87 -90 -77 -97 12 -7 11 -9 -1 -9 -12 0 -12
-2 -1 -9 8 -5 9 -11 3 -15 -13 -8 -26 10 -17 24 16 26 -13 4 -66 -50 l-59 -61
0 -129 c0 -77 4 -130 10 -130 18 0 50 -44 50 -69 -1 -76 -111 -104 -141 -37
-14 30 -5 70 22 97 18 18 20 31 18 152 l-3 132 157 160 c143 145 172 182 142
179 -6 -1 -9 19 -7 48 3 35 10 52 25 64 24 17 79 13 103 -7z m-336 -99 c32
-17 48 -61 33 -90 -27 -55 -83 -66 -127 -25 -22 20 -37 25 -83 25 -47 0 -59
-4 -79 -25 -26 -28 -78 -34 -109 -11 -25 18 -25 78 0 106 26 29 80 27 109 -5
20 -21 32 -25 85 -25 43 0 61 4 61 13 0 15 48 46 73 47 10 0 27 -4 37 -10z
m413 -85 c-3 -9 -8 -14 -10 -11 -3 3 -2 9 2 15 9 16 15 13 8 -4z m-13 -50
c-13 -14 -26 -22 -29 -19 -3 3 5 14 19 24 34 27 38 25 10 -5z m86 -24 c-24
-25 -33 -40 -25 -43 10 -3 9 -9 -3 -26 -15 -22 -15 -22 -14 10 1 23 11 41 36
65 48 45 52 41 6 -6z m24 -11 c0 -5 -5 -10 -11 -10 -5 0 -7 5 -4 10 3 6 8 10
11 10 2 0 4 -4 4 -10z m-320 -14 c0 -3 -4 -8 -10 -11 -5 -3 -10 -1 -10 4 0 6
5 11 10 11 6 0 10 -2 10 -4z m-411 -77 c44 -41 7 -129 -54 -129 -37 0 -75 42
-75 83 0 68 76 95 129 46z m427 -67 c-17 -16 -18 -16 -5 5 7 12 15 20 18 17 3
-2 -3 -12 -13 -22z m-310 -69 c-4 -4 -12 -1 -19 7 -9 10 -9 11 1 6 7 -4 12 -2
13 6 0 11 2 11 6 0 3 -7 2 -16 -1 -19z m-131 -153 c3 -5 1 -10 -4 -10 -6 0
-11 5 -11 10 0 6 2 10 4 10 3 0 8 -4 11 -10z m772 -167 c-3 -10 -5 -4 -5 12 0
17 2 24 5 18 2 -7 2 -21 0 -30z m-507 -33 c0 -5 -5 -10 -11 -10 -5 0 -7 5 -4
10 3 6 8 10 11 10 2 0 4 -4 4 -10z m231 -283 c-13 -13 -26 -3 -16 12 3 6 11 8
17 5 6 -4 6 -10 -1 -17z m96 -33 c-3 -3 -12 -4 -19 -1 -8 3 -5 6 6 6 11 1 17
-2 13 -5z"/>
<path d="M4112 5701 c-21 -13 -10 -46 16 -49 27 -4 40 22 22 43 -14 17 -20 18
-38 6z"/>
<path d="M4104 5385 c-8 -20 4 -35 27 -35 24 0 37 29 18 41 -21 13 -39 11 -45
-6z"/>
<path d="M4407 5694 c-4 -4 -7 -16 -7 -26 0 -15 6 -19 28 -16 19 2 27 9 27 23
0 20 -33 33 -48 19z m33 -19 c0 -8 -4 -15 -8 -15 -5 0 -9 7 -9 15 0 8 4 15 9
15 4 0 8 -7 8 -15z"/>
<path d="M4663 5684 c-3 -8 -1 -20 5 -26 16 -16 47 -5 50 20 3 18 -1 22 -23
22 -14 0 -28 -7 -32 -16z"/>
<path d="M4100 4990 c0 -27 27 -37 47 -17 20 19 9 37 -23 37 -17 0 -24 -5 -24
-20z"/>
<path d="M4680 4756 c-18 -22 -5 -48 22 -44 17 2 23 10 23 28 0 29 -26 38 -45
16z"/>
<path d="M4482 4678 c-7 -7 -12 -17 -12 -24 0 -19 32 -26 48 -10 13 12 13 18
2 30 -15 19 -22 20 -38 4z"/>
<path d="M4237 4044 c-12 -13 -8 -42 8 -48 25 -9 46 5 43 28 -3 21 -37 34 -51
20z m33 -24 c0 -5 -2 -10 -4 -10 -3 0 -8 5 -11 10 -3 6 -1 10 4 10 6 0 11 -4
11 -10z"/>
<path d="M4493 3663 c-31 -12 0 -59 31 -47 10 4 16 15 14 28 -3 21 -22 29 -45
19z"/>
<path d="M4707 4557 c-22 -15 -13 -47 13 -47 23 0 34 30 17 47 -10 11 -16 11
-30 0z"/>
<path d="M4360 3815 c-11 -13 -11 -19 3 -32 21 -21 49 -9 45 19 -4 28 -30 35
-48 13z"/>
<path d="M4112 4441 c-18 -11 -12 -45 8 -48 28 -5 43 12 31 36 -13 23 -19 25
-39 12z"/>
<path d="M4376 4441 c-8 -12 2 -38 18 -44 20 -8 38 8 34 29 -3 20 -42 32 -52
15z"/>
<path d="M4134 4195 c-10 -25 4 -45 31 -45 20 0 25 5 25 24 0 34 -45 50 -56
21z"/>
<path d="M4812 5541 c-20 -12 -10 -46 14 -49 25 -4 40 24 23 44 -13 16 -19 17
-37 5z"/>
<path d="M5310 5515 c0 -20 5 -25 24 -25 25 0 36 15 29 38 -3 6 -16 12 -29 12
-19 0 -24 -5 -24 -25z m25 5 c-3 -5 -1 -10 6 -10 7 0 10 -3 6 -6 -9 -9 -28 6
-22 17 4 5 8 9 11 9 3 0 2 -4 -1 -10z"/>
<path d="M4280 5356 c-18 -22 -5 -48 22 -44 17 2 23 10 23 28 0 29 -26 38 -45
16z"/>
<path d="M4533 5354 c-7 -19 4 -44 19 -44 23 0 41 17 35 33 -8 20 -47 29 -54
11z m32 -14 c3 -5 1 -10 -4 -10 -6 0 -11 5 -11 10 0 6 2 10 4 10 3 0 8 -4 11
-10z"/>
<path d="M5587 5362 c-12 -2 -17 -11 -15 -25 4 -31 52 -31 56 -1 3 23 -12 33
-41 26z"/>
<path d="M5845 5357 c-23 -17 -14 -47 15 -47 26 0 37 27 18 46 -12 12 -17 12
-33 1z"/>
<path d="M4104 5195 c-9 -23 3 -45 26 -45 25 0 37 25 20 45 -16 19 -39 19 -46
0z"/>
<path d="M6022 5201 c-23 -14 -10 -46 18 -46 16 0 26 6 28 19 3 16 -12 36 -28
36 -3 0 -11 -4 -18 -9z"/>
<path d="M4100 4796 c0 -27 17 -37 42 -25 24 13 11 49 -18 49 -19 0 -24 -5
-24 -24z"/>
<path d="M6013 4795 c0 -19 5 -25 22 -25 24 0 35 16 28 38 -3 6 -15 12 -28 12
-17 0 -22 -6 -22 -25z"/>
<path d="M4104 4627 c-10 -27 3 -49 28 -45 25 4 32 32 12 49 -11 9 -14 8 -14
-2 0 -11 -2 -11 -10 1 -8 12 -10 12 -16 -3z"/>
<path d="M6014 4625 c-9 -23 3 -45 25 -45 26 0 34 15 21 40 -13 24 -38 26 -46
5z"/>
<path d="M4978 4108 c-5 -39 3 -118 13 -118 5 0 9 32 9 70 0 66 -15 98 -22 48z"/>
<path d="M5160 4060 c0 -53 3 -71 13 -67 8 2 12 25 12 67 0 42 -4 65 -12 68
-10 3 -13 -15 -13 -68z"/>
<path d="M4930 3926 c0 -29 22 -39 46 -22 24 18 11 46 -21 46 -20 0 -25 -5
-25 -24z"/>
<path d="M5176 3934 c-4 -10 1 -22 11 -30 15 -11 20 -10 32 1 7 7 11 21 8 29
-8 21 -43 21 -51 0z m34 -14 c0 -5 -2 -10 -4 -10 -3 0 -8 5 -11 10 -3 6 -1 10
4 10 6 0 11 -4 11 -10z"/>
<path d="M4607 3816 c-10 -26 4 -47 27 -44 15 2 21 10 21 28 0 29 -38 41 -48
16z m26 -11 c-3 -9 -8 -14 -10 -11 -3 3 -2 9 2 15 9 16 15 13 8 -4z"/>
<path d="M5500 3800 c0 -27 27 -37 47 -17 20 19 9 37 -23 37 -17 0 -24 -5 -24
-20z"/>
<path d="M4714 3565 c-4 -9 -2 -21 4 -27 16 -16 47 -5 47 17 0 26 -42 34 -51
10z"/>
<path d="M5393 3564 c-3 -8 2 -23 11 -32 15 -15 17 -15 32 0 21 21 11 48 -16
48 -11 0 -23 -7 -27 -16z"/>
<path d="M4864 3475 c-7 -17 2 -45 14 -45 20 0 43 26 36 43 -8 21 -43 22 -50
2z"/>
<path d="M5247 3483 c-12 -11 -8 -41 6 -46 19 -7 50 20 44 38 -6 15 -38 21
-50 8z m20 -35 c-3 -8 -6 -5 -6 6 -1 11 2 17 5 13 3 -3 4 -12 1 -19z"/>
</g>
</svg>
